<svg xmlns="http://www.w3.org/2000/svg" width="2500" height="843" viewBox="0 0 2500 843">
  <rect width="2500" height="843" fill="#f4faf8"/>
  <rect x="0" y="0" width="1250" height="843" fill="#087b6d"/>
  <rect x="1250" y="0" width="1250" height="843" fill="#e7f6f2"/>
  <path d="M0 0h2500v34H0z" fill="#154e49"/>
  <line x1="1250" y1="80" x2="1250" y2="763" stroke="#ffffff" stroke-opacity=".45" stroke-width="6"/>
  <g transform="translate(420 170)" fill="none" stroke="#fff" stroke-linecap="round" stroke-linejoin="round" stroke-width="34">
    <path d="M30 70h330l-35 250H75z"/>
    <path d="M105 70l40-70h100l40 70"/>
    <circle cx="140" cy="370" r="28"/>
    <circle cx="280" cy="370" r="28"/>
  </g>
  <text x="625" y="650" fill="#fff" font-family="Microsoft JhengHei, Noto Sans TC, sans-serif" font-size="112" font-weight="700" text-anchor="middle">立即訂購</text>
  <text x="625" y="755" fill="#d9f1ec" font-family="Microsoft JhengHei, Noto Sans TC, sans-serif" font-size="46" text-anchor="middle">選商品、填數量，快速完成下單</text>
  <g transform="translate(1675 165)" fill="none" stroke="#087b6d" stroke-linecap="round" stroke-linejoin="round" stroke-width="34">
    <rect x="20" y="10" width="360" height="370" rx="30"/>
    <path d="M100 115h200M100 205h200M100 295h115"/>
    <circle cx="325" cy="310" r="80"/>
    <path d="M380 370l75 75"/>
  </g>
  <text x="1875" y="650" fill="#154e49" font-family="Microsoft JhengHei, Noto Sans TC, sans-serif" font-size="112" font-weight="700" text-anchor="middle">查詢未出貨</text>
  <text x="1875" y="755" fill="#4d716b" font-family="Microsoft JhengHei, Noto Sans TC, sans-serif" font-size="46" text-anchor="middle">查看商品、數量與累積金額</text>
</svg>
